<svg width="76" height="45" viewBox="0 0 76 45" xmlns="http://www.w3.org/2000/svg"><title>card-back</title><g fill="none" fill-rule="evenodd"><rect fill="#4990E2" width="75.789" height="45" rx="4.071"/><path fill="#444" d="M0 6.316h75.79V16.58H0z"/><path fill="#F7F7F7" d="M0 22.895h47.57v11.053H0z"/><path d="M34.594 31.974V26.35h-.908c-.032.214-.1.394-.2.538-.103.145-.227.26-.374.35-.148.088-.314.15-.498.184a2.7 2.7 0 0 1-.575.045v.86h1.413v3.647h1.14zm2.016-3.463h1.093c0-.15.015-.3.044-.453.03-.153.08-.292.15-.418a.87.87 0 0 1 .276-.306.737.737 0 0 1 .422-.116c.246 0 .448.076.606.23.16.15.238.364.238.637 0 .172-.038.324-.116.458a1.562 1.562 0 0 1-.29.362 2.618 2.618 0 0 1-.38.293c-.14.088-.27.175-.395.26-.24.167-.47.33-.687.49-.216.162-.405.337-.566.527-.16.19-.288.406-.382.647-.093.24-.14.525-.14.852h4.13v-.98h-2.66c.14-.193.3-.362.482-.507.182-.144.37-.28.562-.405.193-.126.385-.253.575-.382.19-.128.36-.272.51-.43.15-.158.272-.338.363-.542a1.78 1.78 0 0 0 .136-.73 1.7 1.7 0 0 0-.158-.74 1.64 1.64 0 0 0-.42-.555 1.894 1.894 0 0 0-.616-.345 2.24 2.24 0 0 0-.735-.12 2.19 2.19 0 0 0-.895.172c-.26.115-.475.276-.647.482-.17.206-.3.447-.385.723a2.698 2.698 0 0 0-.113.896zm6.403.114v.803c.14 0 .286.004.438.012.154.007.295.036.423.087.13.05.234.133.317.245.083.113.125.276.125.49 0 .274-.088.49-.265.647a.94.94 0 0 1-.65.236.97.97 0 0 1-.43-.088.88.88 0 0 1-.302-.237c-.08-.098-.142-.216-.185-.353a1.623 1.623 0 0 1-.072-.43h-1.084c-.005.327.042.616.14.868.1.252.24.465.423.64.18.173.402.305.66.397.26.09.55.136.865.136.273 0 .536-.04.787-.12a2.04 2.04 0 0 0 .667-.354 1.72 1.72 0 0 0 .46-.578c.116-.23.174-.493.174-.788 0-.32-.088-.597-.265-.827-.178-.23-.422-.38-.732-.45v-.015a.987.987 0 0 0 .59-.426c.13-.21.197-.45.197-.724a1.3 1.3 0 0 0-.17-.667 1.63 1.63 0 0 0-.436-.49 1.92 1.92 0 0 0-.608-.302c-.225-.067-.45-.1-.675-.1-.29 0-.552.046-.787.14a1.744 1.744 0 0 0-1 1.012 2.39 2.39 0 0 0-.157.792h1.084c-.005-.29.066-.53.213-.72.148-.19.366-.285.655-.285.21 0 .394.065.554.193.16.13.24.314.24.555 0 .16-.038.29-.116.385a.748.748 0 0 1-.297.22c-.12.052-.25.083-.39.094-.14.01-.27.01-.394 0zM11.15 32.08v-5.53h-1.03L8.38 28.3l.672.704.92-.937v4.012h1.177zm5.097 0v-1.037h-2.254c1.434-1.045 2.213-1.865 2.213-2.81 0-1.103-.937-1.766-2.114-1.766-.77 0-1.59.282-2.13.904l.67.78c.374-.39.855-.64 1.485-.64.456 0 .895.242.895.723 0 .68-.663 1.25-2.926 2.926v.92h4.16zm2.77.098c1.325 0 2.18-.67 2.18-1.624 0-.83-.73-1.27-1.294-1.327.613-.107 1.21-.563 1.21-1.26 0-.92-.796-1.5-2.09-1.5-.97 0-1.665.373-2.112.88l.59.736a1.99 1.99 0 0 1 1.4-.572c.58 0 1.028.217 1.028.656 0 .407-.406.59-1.02.59-.207 0-.588 0-.688-.01v1.062c.083-.01.456-.017.688-.017.77 0 1.11.2 1.11.64 0 .414-.372.704-1.043.704-.54 0-1.144-.232-1.526-.63l-.614.787c.406.5 1.16.888 2.18.888zm6.548-.1v-1.143h.713V29.9h-.713v-3.35H23.94l-2.197 3.457v.928h2.645v1.144h1.177zm-1.177-2.18h-1.492l1.492-2.304V29.9z" fill="#000"/><circle stroke="#D0011B" stroke-width="1.5" cx="39.671" cy="29.013" r="11.25"/></g></svg>