<svg width="30" height="21" viewBox="0 0 30 21" xmlns="http://www.w3.org/2000/svg"><title>icon_mastercard</title><g fill="none" fill-rule="evenodd"><path fill="#0C2D5A" d="M0 .75h30v20H0z"/><path d="M23.555 10.774a5.737 5.737 0 0 1-5.74 5.736 5.737 5.737 0 0 1-5.738-5.736 5.737 5.737 0 0 1 5.74-5.736c3.17 0 5.738 2.568 5.738 5.736" fill="#F1AB3E"/><path d="M17.555 10.774a5.737 5.737 0 0 1-5.74 5.736 5.737 5.737 0 0 1-5.738-5.736 5.737 5.737 0 0 1 5.74-5.736c3.17 0 5.738 2.568 5.738 5.736" fill="#D82331"/><path fill="#F3F3F3" d="M7 9.75h16v2H7z"/></g></svg>