<svg width="30" height="21" viewBox="0 0 30 21" xmlns="http://www.w3.org/2000/svg"><title>icon_diners</title><g fill="none" fill-rule="evenodd"><path fill="#EBEBEB" d="M0 .75h30v20H0z"/><path d="M23.557 10.26c0-3.674-3.12-6.214-6.54-6.213h-3.94c-3.46 0-6.307 2.54-6.307 6.213 0 3.362 2.847 6.123 6.307 6.106h3.94c3.42.017 6.54-2.745 6.54-6.106z" fill="#1E427F"/><path d="M14.183 13.003V7.39a3.012 3.012 0 0 1 1.96 2.806 3.014 3.014 0 0 1-1.96 2.807m-4.145-2.807a3.015 3.015 0 0 1 1.96-2.807v5.613a3.015 3.015 0 0 1-1.96-2.807M13.09 5.45c-2.66 0-4.814 2.125-4.815 4.746 0 2.62 2.156 4.744 4.816 4.745 2.66 0 4.817-2.123 4.817-4.744 0-2.62-2.156-4.745-4.816-4.746" fill="#EBEBEB"/></g></svg>